<?xml version="1.0" encoding="UTF-8"?>
<!DOCTYPE svg PUBLIC "-//W3C//DTD SVG 1.1//EN" "http://www.w3.org/Graphics/SVG/1.1/DTD/svg11.dtd">
<!-- Creator: CorelDRAW -->
<svg xmlns="http://www.w3.org/2000/svg" xml:space="preserve" width="24px" height="24px" style="shape-rendering:geometricPrecision; text-rendering:geometricPrecision; image-rendering:optimizeQuality; fill-rule:evenodd; clip-rule:evenodd"
viewBox="0 0 9.0926 9.0926"
 xmlns:xlink="http://www.w3.org/1999/xlink">
 <defs>
  <style type="text/css">
   <![CDATA[
    .str0 {stroke:#974578;stroke-width:0.0587592}
    .fil6 {fill:none}
    .fil4 {fill:#1F1A17;fill-rule:nonzero}
    .fil3 {fill:#974578;fill-rule:nonzero}
    .fil5 {fill:#E77817;fill-rule:nonzero}
    .fil0 {fill:url(#id1)}
    .fil1 {fill:url(#id2);fill-rule:nonzero}
    .fil2 {fill:url(#id3);fill-rule:nonzero}
   ]]>
  </style>
   <clipPath id="id0">
    <path d="M-0 0l9.0926 0 0 9.0926 -9.0926 0 0 -9.0926z"/>
   </clipPath>
  <linearGradient id="id1" gradientUnits="userSpaceOnUse" x1="4.1675" y1="0.159232" x2="4.1675" y2="9.22463">
   <stop offset="0" style="stop-color:#E9FAF8"/>
   <stop offset="1" style="stop-color:#BBE0F7"/>
  </linearGradient>
  <linearGradient id="id2" gradientUnits="userSpaceOnUse" x1="4.53724" y1="1.27621" x2="4.53724" y2="7.8281">
   <stop offset="0" style="stop-color:white"/>
   <stop offset="1" style="stop-color:#E9FAF8"/>
  </linearGradient>
  <linearGradient id="id3" gradientUnits="userSpaceOnUse" x1="4.52986" y1="0.806127" x2="4.52986" y2="8.30048">
   <stop offset="0" style="stop-color:#C1E0E3"/>
   <stop offset="1" style="stop-color:#8BB4F0"/>
  </linearGradient>
 </defs>
 <g id="Ebene_x0020_1">
  <metadata id="CorelCorpID_0Corel-Layer"/>
  <g>
  </g>
  <g style="clip-path:url(#id0)">
   <g>
    <g id="_171726880">
     <path id="_172689168" class="fil0" d="M0.818237 4.11158c-2.37464,-1.71462 2.16009,-3.68371 3.29402,-2.3185 0,-1.15924 2.16646,-1.15924 2.16646,0 2.03559,-1.63384 3.48646,2.89814 2.16644,2.89814 1.44626,0.38694 -0.367563,4.53343 -2.16644,2.60831 -0.361078,1.15924 -2.52752,1.15924 -2.52752,0 -0.993426,1.19604 -3.97339,-0.903774 -2.93295,-1.73887 -0.722144,0 -1.08321,-1.44907 0,-1.44907z"/>
     <path id="_172081480" class="fil1" d="M0.503015 2.95861c-0.0521798,0.252127 0.0805683,0.543213 0.497501,0.851123 0.102067,0.0617685 0.170287,0.17384 0.170287,0.301847 0,0.194717 -0.15785,0.352566 -0.352566,0.352566 -0.18173,0 -0.27669,0.0593089 -0.309276,0.139366 -0.0174395,0.0428521 -0.0245131,0.092389 -0.0226586,0.144302 0.00219868,0.0614576 0.0160792,0.125319 0.0397539,0.186516 0.0579763,0.149877 0.167655,0.273752 0.29218,0.273752l0 0.000916117c0.102788,6.66267e-005 0.204644,0.0449508 0.274063,0.131293 0.121699,0.151359 0.0976525,0.372721 -0.0537067,0.49442 -0.0966864,0.0776034 -0.100101,0.195438 -0.0437515,0.323928 0.0696415,0.158783 0.21104,0.330585 0.396173,0.493793 0.197359,0.173984 0.437471,0.330702 0.690713,0.447654 0.522176,0.241155 1.09125,0.316521 1.38283,-0.00587425 0.0639838,-0.0891632 0.168521,-0.147256 0.286634,-0.147256 0.194717,0 0.352566,0.15785 0.352566,0.352566 0,0.167216 0.0814789,0.291497 0.205732,0.372649 0.115114,0.0751827 0.265407,0.121272 0.429898,0.138095 0.174484,0.0178448 0.361078,0.00174895 0.537716,-0.048271 0.30706,-0.0869534 0.575183,-0.276945 0.665573,-0.567143l0.000122149 3.88656e-005c0.0175839,-0.0566438 0.0497479,-0.109612 0.0962811,-0.152908 0.142231,-0.132343 0.364831,-0.124325 0.497174,0.0179059 0.368013,0.393836 0.718091,0.458164 1.01197,0.336654 0.289249,-0.119595 0.548987,-0.400443 0.74181,-0.735747 0.200197,-0.348136 0.321851,-0.743831 0.328336,-1.07843 0.00528017,-0.272492 -0.0693584,-0.490239 -0.252004,-0.547433 -0.156784,-0.0357896 -0.27378,-0.176089 -0.27378,-0.343722 0,-0.194717 0.15785,-0.352566 0.352566,-0.352566 0.106692,0 0.153786,-0.172341 0.153786,-0.408755 0,-0.244464 -0.057149,-0.53625 -0.161647,-0.82802 -0.105859,-0.295589 -0.257584,-0.584555 -0.444894,-0.817926 -0.365453,-0.455316 -0.890654,-0.687865 -1.47644,-0.230068 -0.0626291,0.0570102 -0.145879,0.0917616 -0.237241,0.0917616 -0.194717,0 -0.352566,-0.15785 -0.352566,-0.352566 0,-0.237619 -0.173862,-0.394252 -0.396395,-0.466603 -0.103049,-0.0335021 -0.217525,-0.0502587 -0.334266,-0.0502587 -0.116741,0 -0.231222,0.0167566 -0.334266,0.0502587 -0.222533,0.072351 -0.396395,0.228985 -0.396395,0.466603l-0.00149355 0c-5.55222e-005,0.100651 -0.0431519,0.200546 -0.126585,0.269932 -0.149077,0.123976 -0.370444,0.103632 -0.49442,-0.045445 -0.373309,-0.449453 -1.29219,-0.408316 -2.08558,-0.111861 -0.329669,0.123187 -0.632859,0.291603 -0.864426,0.489495 -0.206043,0.176083 -0.349135,0.369328 -0.389305,0.563412z"/>
     <path id="_171726352" class="fil2" d="M0.529682 4.03054c-0.434933,-0.387889 -0.563684,-0.788938 -0.485736,-1.16558 0.0629456,-0.304101 0.262032,-0.585415 0.543552,-0.825999 0.27302,-0.233321 0.625625,-0.430064 1.00582,-0.572129 0.85768,-0.32048 1.86351,-0.36125 2.43206,0.0808904 0.0885968,-0.337659 0.360145,-0.559964 0.690774,-0.667466 0.151981,-0.0494148 0.316038,-0.0741277 0.479335,-0.0741277 0.163296,0 0.327342,0.0247074 0.479335,0.0741277 0.34069,0.110772 0.618662,0.343433 0.698364,0.698603 0.793824,-0.52554 1.49344,-0.200702 1.98463,0.411281 0.222383,0.277067 0.400171,0.613599 0.522015,0.953811 0.122304,0.341484 0.189192,0.688898 0.189192,0.985942 0,0.360462 -0.0961201,0.651603 -0.306372,0.790487 0.232361,0.186405 0.331074,0.503076 0.323972,0.869334 -0.0079841,0.411936 -0.152769,0.89041 -0.390771,1.30429 -0.240467,0.418155 -0.57807,0.774052 -0.969507,0.9359 -0.430841,0.178143 -0.918482,0.126091 -1.40493,-0.322573 -0.179104,0.360995 -0.528777,0.596281 -0.917611,0.706393 -0.232277,0.0657772 -0.479435,0.0867591 -0.712162,0.0629567 -0.236058,-0.0241411 -0.458408,-0.0946432 -0.637401,-0.211545 -0.189714,-0.123903 -0.330624,-0.297627 -0.389816,-0.52116 -0.464005,0.352588 -1.15766,0.269161 -1.77918,-0.0178726 -0.295517,-0.136474 -0.575183,-0.318898 -0.804562,-0.521104 -0.233454,-0.205804 -0.416961,-0.434317 -0.515535,-0.659055 -0.111367,-0.253925 -0.118312,-0.501355 0.0229251,-0.709708 -0.228818,-0.0857652 -0.406434,-0.293552 -0.499051,-0.532969 -0.0421192,-0.108874 -0.0668932,-0.224843 -0.0709741,-0.33893 -0.00419193,-0.11728 0.0132198,-0.232716 0.055711,-0.337103 0.0744942,-0.183024 0.220979,-0.33114 0.455921,-0.396695zm-0.256207 -1.11875c-0.0711129,0.343616 0.0885191,0.723283 0.605487,1.09916 0.0340407,0.0205821 0.0567937,0.0579486 0.0567937,0.100629 0,0.0648999 -0.0526184,0.117518 -0.117518,0.117518 -0.295284,0 -0.459941,0.121821 -0.526873,0.286273 -0.0299654,0.0736225 -0.042208,0.156112 -0.0391876,0.240706 0.00314256,0.0877751 0.0224643,0.177688 0.0553612,0.26272 0.0898683,0.232322 0.279033,0.424334 0.510699,0.424334l0 0.00029982c0.0342628,2.22089e-005 0.0682146,0.0149855 0.0913563,0.0437682 0.0405646,0.0504531 0.0325471,0.124242 -0.0179059,0.164807 -0.1951,0.156595 -0.211329,0.373104 -0.111689,0.600284 0.0841106,0.191768 0.246563,0.391932 0.455849,0.576426 0.213372,0.188098 0.47326,0.357669 0.74764,0.484382 0.616108,0.284535 1.30242,0.353682 1.67175,-0.08144 0.0212928,-0.0300431 0.0563273,-0.0496535 0.095948,-0.0496535 0.0648999,0 0.117518,0.0526184 0.117518,0.117518 0,0.255863 0.124014,0.445605 0.313157,0.569131 0.147056,0.0960424 0.333383,0.154341 0.533652,0.174823 0.2036,0.0208208 0.420475,0.00228196 0.624936,-0.0556166 0.377435,-0.106886 0.709463,-0.34828 0.826249,-0.723227l4.44178e-005 1.11044e-005c0.00586315,-0.0188831 0.0165789,-0.0365336 0.0320863,-0.0509639 0.0474049,-0.0441124 0.12161,-0.0414418 0.165723,0.00596309 0.448303,0.479768 0.891376,0.551264 1.27273,0.393581 0.340335,-0.140721 0.639005,-0.459091 0.855653,-0.835826 0.219102,-0.38101 0.352322,-0.818098 0.359556,-1.19136 0.00742332,-0.383181 -0.120855,-0.693828 -0.432896,-0.780099 -0.0526129,-0.0116708 -0.091967,-0.0586037 -0.091967,-0.114726 0,-0.0648999 0.0526184,-0.117518 0.117518,-0.117518 0.269766,0 0.388833,-0.271443 0.388833,-0.643803 0,-0.270743 -0.0620183,-0.590346 -0.175423,-0.906978 -0.113854,-0.317904 -0.278611,-0.630649 -0.48346,-0.885874 -0.446116,-0.555817 -1.09192,-0.835188 -1.81737,-0.256985 -0.0208708,0.018972 -0.0485931,0.0305372 -0.0790193,0.0305372 -0.0648999,0 -0.117518,-0.0526184 -0.117518,-0.117518 0,-0.357424 -0.245142,-0.587692 -0.558909,-0.689708 -0.127535,-0.041464 -0.266795,-0.0622016 -0.4068,-0.0622016 -0.140005,0 -0.279271,0.0207376 -0.4068,0.0622016 -0.313767,0.102017 -0.558909,0.332284 -0.558909,0.689708l-0.000494148 0c-1.66567e-005,0.0335521 -0.0143858,0.0668488 -0.0421969,0.0899793 -0.0496924,0.0413252 -0.123481,0.0345404 -0.164807,-0.015152 -0.443495,-0.533957 -1.47275,-0.508395 -2.34724,-0.181635 -0.354943,0.132632 -0.68284,0.315205 -0.935128,0.530809 -0.243782,0.208336 -0.414873,0.445616 -0.466431,0.694711z"/>
     <path id="_240948584" class="fil3 str0" d="M7.20301 5.66563c-0.0124203,-0.0133309 -0.0186277,-0.026845 -0.0186277,-0.04072 0,-0.0157017 0.00548005,-0.0286717 0.016801,-0.0387101 0.011321,-0.0102272 0.0299431,-0.0153408 0.0558776,-0.0153408l0.0706632 0c0.0262953,0 0.0451063,0.0051136 0.0560608,0.0153408 0.0111378,0.0100384 0.0166178,0.0233693 0.0166178,0.0398039 0,0.0149743 -0.00419748,0.0275723 -0.0127812,0.0379828 -0.00639061,0.0074844 -0.0195383,0.0133309 -0.0392598,0.0177116 -0.0199047,0.00420303 -0.0345126,0.0146079 -0.0441902,0.0308593 -0.0171675,0.0290381 -0.0257512,0.0659216 -0.0257512,0.110845 0,0.0516746 0.0151576,0.0931275 0.0454727,0.124353 0.0303096,0.0312257 0.0686588,0.0467442 0.115037,0.0467442 0.0429131,0 0.0766984,-0.0149743 0.10135,-0.0449175 0.0248295,-0.0299487 0.0372499,-0.0796189 0.0372499,-0.149188 0,-0.0456504 -0.00456393,-0.0829058 -0.0138806,-0.111755 -0.00565772,-0.0171675 -0.0155185,-0.0334188 -0.0292158,-0.0487541 -0.0136918,-0.0153408 -0.0206321,-0.0292158 -0.0206321,-0.0416361 0,-0.0151576 0.00565772,-0.0279388 0.0166178,-0.0388933 0.0111378,-0.0107713 0.0241022,-0.0162514 0.0390766,-0.0162514 0.0242854,0 0.0472938,0.0166178 0.0690253,0.0496702 0.0325027,0.0492982 0.0487541,0.121249 0.0487541,0.216204 0,0.0852711 -0.0177116,0.151559 -0.0529571,0.199036 -0.0474771,0.0640949 -0.112483,0.0962312 -0.194839,0.0962312 -0.0781531,0 -0.142798,-0.0261121 -0.193923,-0.0781531 -0.0511304,-0.052041 -0.0766984,-0.119972 -0.0766984,-0.203789 0,-0.0303096 0.0027428,-0.0584316 0.00858374,-0.0845437 0.00566327,-0.0259289 0.0142415,-0.0500311 0.025568,-0.0721289zm-0.227891 -0.541603l0.58415 0 0 -0.131471c0,-0.0264786 0.0051136,-0.0452895 0.0153408,-0.0564273 0.0102216,-0.011321 0.0233693,-0.0169843 0.0398039,-0.0169843 0.0160737,0 0.0292158,0.00566327 0.0392598,0.0169843 0.0102272,0.0111378 0.0153408,0.0299487 0.0153408,0.0564273l0 0.372876c0,0.0262953 -0.0051136,0.0451007 -0.0153408,0.0564217 -0.010044,0.0111433 -0.0233693,0.016801 -0.0398039,0.016801 -0.0160737,0 -0.0290381,-0.00565772 -0.0392598,-0.016801 -0.0102272,-0.011321 -0.0153408,-0.0301264 -0.0153408,-0.0564217l0 -0.13166 -0.474404 0 0 0.0881971c0,0.0261121 -0.0051136,0.044923 -0.0153408,0.056244 -0.010044,0.0115042 -0.0233749,0.0171675 -0.0398094,0.0171675 -0.0160681,0 -0.0292158,-0.00566327 -0.0392598,-0.0169843 -0.0102216,-0.0111378 -0.0153352,-0.0299487 -0.0153352,-0.0564273l0 -0.197942zm0.460163 -0.887451c0.041997,0 0.082717,0.0116874 0.12216,0.0350567 0.039443,0.0231916 0.0708519,0.0580707 0.0942268,0.104271 0.0233693,0.0461945 0.0350567,0.0944045 0.0350567,0.144619 0,0.0500366 -0.0115042,0.0976969 -0.0345126,0.143347 -0.0230084,0.0456504 -0.0544173,0.0805295 -0.0938548,0.104448 -0.0396262,0.023919 -0.0810791,0.0357896 -0.124175,0.0357896 -0.0438237,0 -0.0869201,-0.0120539 -0.129284,-0.0363393 -0.0421802,-0.0242854 -0.0754159,-0.0591645 -0.0997013,-0.104632 -0.0242854,-0.0454672 -0.0363393,-0.0929442 -0.0363393,-0.142614 0,-0.0498479 0.0124203,-0.0978746 0.0370722,-0.144075 0.0248351,-0.0462001 0.0582484,-0.0810736 0.100068,-0.104632 0.041997,-0.0235525 0.0850934,-0.03524 0.129284,-0.03524zm0.000544118 0.109562c-0.0354232,0 -0.0677427,0.0127812 -0.0975082,0.0379828 -0.0398094,0.0346903 -0.0598974,0.080163 -0.0598974,0.136401 0,0.0496702 0.0158905,0.0909399 0.0476603,0.12417 0.0317754,0.0332356 0.0684811,0.0496702 0.110295,0.0496702 0.0341462,0 0.0661048,-0.0166178 0.0958703,-0.0502143 0.0299431,-0.0336021 0.0447343,-0.0746885 0.0447343,-0.123626 0,-0.0491205 -0.0147911,-0.0905679 -0.0447343,-0.123987 -0.0297655,-0.0336021 -0.0619073,-0.0503975 -0.0964199,-0.0503975zm-0.252537 -0.71526l0.37598 0c0,-0.0231916 0.00529682,-0.0403536 0.015524,-0.0513137 0.0104049,-0.0111378 0.0235525,-0.0166178 0.0396207,-0.0166178 0.0160737,0 0.0292158,0.00566327 0.0392598,0.016801 0.0102272,0.011321 0.0153408,0.0301319 0.0153408,0.0564273l0 0.104265 -0.0252015 0c0.014247,0.0314089 0.0250183,0.0613576 0.0321418,0.0900238 0.00711795,0.0284885 0.0107713,0.0555111 0.0107713,0.0812568 0,0.0359784 -0.00766762,0.0671986 -0.0228252,0.0936771 -0.0151576,0.0262953 -0.0361561,0.0471162 -0.0628179,0.0624514 -0.0193551,0.0111378 -0.043274,0.0166178 -0.0723066,0.0166178l-0.235925 0 0 0.0188109c0,0.0262898 -0.00493038,0.0451007 -0.0151576,0.0564217 -0.0102272,0.0111378 -0.0233749,0.016801 -0.0398094,0.016801 -0.0160681,0 -0.0292158,-0.00566327 -0.039443,-0.016801 -0.010044,-0.011321 -0.015152,-0.0301319 -0.015152,-0.0564217l0 -0.128373 0.32631 0c0.0231916,0 0.0401759,-0.00566327 0.0511304,-0.0169843 0.0107769,-0.0111378 0.0162514,-0.0282997 0.0162514,-0.0514913 0,-0.0220979 -0.0043807,-0.0460168 -0.0131477,-0.0715848 -0.00876141,-0.0253792 -0.0244687,-0.0569714 -0.0472938,-0.0944045l-0.223688 0 0 0.0396262c0,0.0264786 -0.00493038,0.0452839 -0.0151576,0.0564217 -0.0102272,0.0113265 -0.0233749,0.0169843 -0.0398094,0.0169843 -0.0160681,0 -0.0292158,-0.00565772 -0.039443,-0.0169843 -0.010044,-0.0111378 -0.015152,-0.0299431 -0.015152,-0.0564217l0 -0.149188zm-0.20817 -0.676366l0.58415 0 0 -0.0186222c0,-0.0261121 0.0051136,-0.0447398 0.0153408,-0.056244 0.0102216,-0.011321 0.0233693,-0.0171619 0.0398039,-0.0171619 0.0160737,0 0.0292158,0.00565772 0.0392598,0.0169787 0.0102272,0.0111378 0.0153408,0.0299487 0.0153408,0.0564273l0 0.128367 -0.0266618 0c0.0146079,0.0250183 0.025568,0.0511304 0.0330524,0.0783419 0.00748995,0.0272059 0.011321,0.0555111 0.011321,0.0847269 0,0.0825338 -0.023919,0.148822 -0.0713961,0.199036 -0.0476603,0.0504031 -0.107008,0.0754159 -0.178043,0.0754159 -0.0741333,0 -0.137318,-0.0262953 -0.189908,-0.0790637 -0.0524074,-0.0527739 -0.0785196,-0.117235 -0.0785196,-0.193195 0,-0.0284885 0.00438626,-0.0564273 0.0131477,-0.0839996 0.00858374,-0.0273891 0.0217314,-0.0546006 0.0392598,-0.0812624l-0.136401 0 0 0.0186277c0,0.0264786 -0.0051136,0.0452839 -0.0153408,0.0564273 -0.010044,0.011321 -0.0231916,0.0169787 -0.0392598,0.0169787 -0.0164346,0 -0.0297655,-0.00565772 -0.0398094,-0.0169787 -0.0102216,-0.0111433 -0.0153352,-0.0299487 -0.0153352,-0.0564273l0 -0.128373zm0.465454 0.109745c-0.0452839,0 -0.0836276,0.0158905 -0.115037,0.0476603 -0.0314089,0.0315922 -0.0471162,0.0704855 -0.0471162,0.116502 0,0.0456504 0.0157072,0.084366 0.0471162,0.116136 0.0314089,0.0317754 0.0692029,0.0476603 0.113393,0.0476603 0.0403591,0 0.0734115,-0.0142415 0.0993404,-0.0429131 0.0257457,-0.0284829 0.0387101,-0.068842 0.0387101,-0.120883 0,-0.0516746 -0.0129644,-0.0920337 -0.0387101,-0.120883 -0.0259289,-0.0288494 -0.0584316,-0.0432796 -0.0976969,-0.0432796z"/>
     <path id="_177694992" class="fil4" d="M2.08372 3.74548l-0.0595087 -0.18369c-0.0135474,-0.0335021 -0.0249184,-0.0583372 -0.0341073,-0.0745108 -0.00919448,-0.0161736 -0.0287883,-0.0271504 -0.0587814,-0.0329247l-0.0449952 -0.00693473 0 -0.0277223 0.638622 0 0 0.0277223 -0.0203267 0c-0.00676816,0 -0.0193495,0.00202101 -0.0377329,0.00606858 -0.0183834,0.00404202 -0.0338686,0.00895019 -0.0464444,0.0147301 -0.0125813,0.00577431 -0.018872,0.0231028 -0.018872,0.0519855 0,0.0265729 0.00653497,0.0635397 0.0195994,0.110906 0.0130588,0.047366 0.0282997,0.100218 0.045717,0.15856 0.0174173,0.0583372 0.0401537,0.13372 0.0682146,0.226142 0.0280609,0.0924223 0.0483821,0.159427 0.0609579,0.201018 0.0125813,-0.039282 0.0278222,-0.086648 0.045717,-0.142098 0.0179059,-0.0554556 0.04258,-0.133725 0.0740278,-0.234809 0.0314422,-0.101084 0.0520077,-0.170403 0.0616852,-0.207947 0.00967197,-0.0375441 0.0145135,-0.0701857 0.0145135,-0.0979079 0,-0.0265729 -0.00580763,-0.0456337 -0.0174229,-0.0571879 -0.0116041,-0.0115542 -0.0256346,-0.0187721 -0.0420859,-0.0216592 -0.0164512,-0.00288716 -0.0319308,-0.004625 -0.0464444,-0.00520243 -0.0145135,-0.000577431 -0.0280609,-0.00144358 -0.0406423,-0.00259844l0 -0.0277223 0.373254 0 0 0.0277223 -0.0638617 0.00866702c-0.0309592,0.00577431 -0.0551502,0.0161736 -0.0725676,0.0311924 -0.0174229,0.0150188 -0.0329025,0.0415862 -0.0464499,0.0797133l-0.0435405 0.133431 -0.310603 0.989484 -0.116108 0 -0.264397 -0.894175 -0.277223 0.894175 -0.116114 0 -0.296083 -0.992949 -0.0449897 -0.135169c-0.0145135,-0.0369667 -0.0278222,-0.0632509 -0.0399149,-0.0788416 -0.0120983,-0.0155962 -0.030243,-0.0251294 -0.0544285,-0.028594l-0.0507973 -0.00693473 0 -0.0277223 0.627002 0 0 0.0277223 -0.0464444 0.00520243c-0.0222533,0.00346459 -0.0379772,0.00895019 -0.0471661,0.0164623 -0.00919448,0.00750661 -0.0137917,0.0216592 -0.0137917,0.0424523 0,0.0254181 0.0079841,0.0661381 0.0239523,0.122171 0.0159626,0.056033 0.0360395,0.123903 0.0602305,0.203617 0.024191,0.0797133 0.0459613,0.150182 0.0653108,0.211412 0.0193551,0.0612299 0.0353177,0.112061 0.047899,0.152497l0.145141 -0.455754zm2.1205 0.306722c0,0.184845 -0.0585427,0.339652 -0.175622,0.464421 -0.117074,0.124764 -0.255447,0.187149 -0.415101,0.187149 -0.166428,0 -0.305522,-0.0615186 -0.417277,-0.18455 -0.111761,-0.123037 -0.167638,-0.278711 -0.167638,-0.46702 0,-0.194084 0.0570935,-0.3512 0.171264,-0.471345 0.114181,-0.12015 0.252065,-0.180225 0.413652,-0.180225 0.161586,0 0.300442,0.0609412 0.41655,0.182824 0.116114,0.121882 0.174173,0.278128 0.174173,0.468747zm-0.44123 -0.473077c-0.029027,-0.0970473 -0.0788582,-0.145568 -0.149494,-0.145568 -0.0358007,0 -0.0667655,0.0138639 -0.0928887,0.0415917 -0.0261288,0.0277278 -0.0462001,0.0678704 -0.0602305,0.120439 -0.0140305,0.0525629 -0.024191,0.120145 -0.0304817,0.202745 -0.00629067,0.082606 -0.00943323,0.167227 -0.00943323,0.25387 0,0.118995 0.0038699,0.216037 0.0116097,0.291131 0.0077398,0.0750883 0.0222533,0.14845 0.0435405,0.220074 0.0212872,0.0716292 0.0672485,0.107441 0.137884,0.107441 0.0358007,0 0.0667655,-0.0138639 0.0928887,-0.0415862 0.0261288,-0.0277278 0.0462056,-0.0678759 0.0602361,-0.120439 0.0140305,-0.0525629 0.0241855,-0.12015 0.0304762,-0.202751 0.00629067,-0.0826004 0.00943878,-0.167222 0.00943878,-0.25387 0,-0.102816 -0.00290937,-0.192063 -0.00871144,-0.267734 -0.00580207,-0.0756657 -0.0174118,-0.144119 -0.0348347,-0.205343zm1.0784 0.473077l0 0.405501 0.00290381 0.0797133c0.00289826,0.0369667 0.0106436,0.0635397 0.023225,0.0797133 0.0125758,0.0161736 0.033863,0.0265729 0.0638561,0.0311924l0.0740223 0.00692918 0 0.0277278 -0.696671 0 0 -0.0277278 0.0449897 0c0.0212928,-0.00346459 0.0416084,-0.00664046 0.0609634,-0.00952762 0.0193495,-0.00289271 0.0345904,-0.0115542 0.045717,-0.0259955 0.0111267,-0.0144413 0.0181391,-0.0401481 0.0210485,-0.0771148l0.00289826 -0.0797133 0 -0.821396 -0.00289826 -0.0797133c-0.00290937,-0.0369667 -0.0101606,-0.0629567 -0.0217758,-0.0779754 -0.0116097,-0.0150188 -0.0280609,-0.0242632 -0.0493482,-0.0277278 -0.0212872,-0.00346459 -0.0396706,-0.00549115 -0.0551502,-0.00606858 -0.0154852,-0.000577431 -0.0299987,-0.00144358 -0.0435461,-0.00259844l0 -0.0277223 0.648783 -0.00173785c0.0899849,0 0.163041,0.004625 0.219157,0.0138639 0.0561219,0.00924445 0.101844,0.0277278 0.137157,0.0554556 0.0353177,0.0277278 0.0633786,0.0620961 0.0841828,0.103105 0.0208042,0.0410143 0.0312035,0.088669 0.0312035,0.142964 0,0.0404368 -0.00604082,0.0808681 -0.0181391,0.121305 -0.0120927,0.0404313 -0.030726,0.0750938 -0.0558831,0.103971 -0.0251516,0.0288827 -0.0563606,0.0514136 -0.0936161,0.0675872 -0.0372443,0.0161736 -0.0965143,0.0242577 -0.177793,0.0242577l0 0.0121316c0.0493482,0.012709 0.0907122,0.0248407 0.124092,0.0363893 0.0333855,0.0115542 0.0636229,0.0283052 0.0907122,0.0502532 0.0270949,0.0219535 0.0515302,0.0545895 0.0733005,0.0979135 0.0217703,0.0433185 0.0394319,0.0906845 0.0529793,0.142098 0.0135419,0.051408 0.0256402,0.0877973 0.0362782,0.109168 0.0106436,0.0213761 0.0256402,0.0320585 0.0449952,0.0320585 0.0251627,0 0.0418527,-0.0193495 0.0500755,-0.0580485 0.00822284,-0.0387046 0.0123315,-0.0828892 0.0123315,-0.13257l0.023225 0c0,0.0566105 -0.00289826,0.101667 -0.00870589,0.135169 -0.00580763,0.0335021 -0.0203211,0.0684478 -0.0435461,0.104843 -0.0232194,0.0363893 -0.0563606,0.0658494 -0.0994181,0.0883748 -0.0430575,0.0225254 -0.0897462,0.0337908 -0.14006,0.0337908 -0.0783752,0 -0.141026,-0.0268561 -0.187959,-0.0805794 -0.0469218,-0.0537178 -0.0759544,-0.124192 -0.0870811,-0.211412 -0.0111267,-0.0872254 -0.0200768,-0.16087 -0.0268506,-0.220945 -0.0106436,-0.0670042 -0.0246741,-0.105998 -0.0420914,-0.116969 -0.0174173,-0.0109767 -0.0362838,-0.0170398 -0.0566049,-0.0182002 -0.0203156,-0.00115486 -0.0406423,-0.00173229 -0.0609579,-0.00173229zm0.116108 -0.0363893c0.0367724,-0.00692918 0.064589,-0.038699 0.083461,-0.0953095 0.0188665,-0.0566105 0.0282997,-0.119567 0.0282997,-0.188887 0,-0.0566049 -0.00967753,-0.112349 -0.029027,-0.167222 -0.0193551,-0.0548782 -0.0425745,-0.0869367 -0.0696693,-0.0961756 -0.0270949,-0.00924445 -0.0512859,-0.0144413 -0.0725676,-0.0155962 -0.0212872,-0.00115486 -0.0401537,-0.00231528 -0.0566049,-0.00347014l0 0.571857 0.0493426 0c0.0270949,0 0.0493537,-0.00173229 0.0667655,-0.00519688zm0.679259 0.667166l0 -0.0277278c0.0125813,0 0.0270949,-0.000866147 0.0435405,-0.00259844 0.0164457,-0.00173229 0.035079,-0.00404202 0.0558776,-0.00692918 0.0208042,-0.00289271 0.0367724,-0.0115542 0.047899,-0.0259955 0.0111267,-0.0144413 0.0181391,-0.0401481 0.0210485,-0.0771148l0.00289826 -0.0797133 0 -0.821396 -0.00289826 -0.0797133c-0.00290937,-0.0369667 -0.0101606,-0.0629567 -0.0217758,-0.0779754 -0.0116097,-0.0150188 -0.0278166,-0.0242632 -0.0486208,-0.0277278 -0.0208042,-0.00346459 -0.0396706,-0.00549115 -0.0566049,-0.00606858 -0.0169343,-0.000577431 -0.0321696,-0.00144358 -0.045717,-0.00259844l0 -0.0277223 0.54137 -0.00347014c0.113215,0 0.21989,0.012709 0.320036,0.0381271 0.100151,0.0254125 0.192557,0.090107 0.277217,0.194084 0.0846659,0.103971 0.127002,0.250694 0.127002,0.440158 0,0.181375 -0.0379772,0.315094 -0.113937,0.401165 -0.07596,0.086065 -0.156267,0.139788 -0.240933,0.161159 -0.0846603,0.0213705 -0.183118,0.0320585 -0.295362,0.0320585l-0.611039 0zm0.682157 -1.21303c-0.0135474,-0.00693473 -0.0345904,-0.0115542 -0.0631343,-0.0138639 -0.028544,-0.00230973 -0.0529793,-0.00346459 -0.0732949,-0.00346459l-0.0174173 0 0 1.19743c0.00677371,0 0.0130644,0.000288716 0.0188665,0.000866147 0.00580763,0.000577431 0.0130644,0.000866147 0.0217758,0.000866147 0.0367613,0 0.0703911,-0.00288716 0.100867,-0.00866702 0.0304817,-0.00577431 0.0590257,-0.0205044 0.0856375,-0.0441846 0.0266063,-0.0236858 0.052252,-0.086648 0.0769205,-0.188887 0.0246741,-0.102244 0.0370111,-0.207081 0.0370111,-0.314522 0,-0.150182 -0.0152409,-0.284485 -0.045717,-0.402897 -0.0304762,-0.118418 -0.0776534,-0.19264 -0.141515,-0.222678z"/>
     <path id="_171727312" class="fil5" d="M3.58021 5.13836l0.116608 0 0 0.0651387c0.0416361,-0.0506974 0.0914118,-0.0760488 0.149027,-0.0760488 0.0305705,0 0.057149,0.00629622 0.07958,0.0188942 0.0225864,0.012598 0.0410198,0.0316532 0.0554667,0.0571546 0.020893,-0.0255014 0.0436294,-0.0445566 0.0679037,-0.0571546 0.0242743,-0.012598 0.0502421,-0.0188942 0.0778922,-0.0188942 0.035029,0 0.0648389,0.00721789 0.0891132,0.0215093 0.0242743,0.014136 0.0424023,0.0351789 0.054384,0.0626846 0.00875586,0.0204322 0.0130588,0.0534624 0.0130588,0.0990905l0 0.305583 -0.126441 0 0 -0.273164c0,-0.0474715 -0.00430297,-0.0780476 -0.0130588,-0.0918727 -0.0116763,-0.0179781 -0.0296544,-0.0270393 -0.0539288,-0.0270393 -0.0178226,0 -0.0344127,0.00537455 -0.0500811,0.0162847 -0.0155185,0.0107547 -0.026734,0.0265785 -0.0336465,0.0474715 -0.00691807,0.020893 -0.0104493,0.0537733 -0.0104493,0.0987907l0 0.229529 -0.126441 0 0 -0.261948c0,-0.0465498 -0.00230417,-0.0765096 -0.00676261,-0.0900293 -0.00445288,-0.0135197 -0.0115209,-0.0235081 -0.020893,-0.0301153 -0.00952762,-0.00660715 -0.0222755,-0.0099829 -0.0385602,-0.0099829 -0.0195161,0 -0.0370278,0.00521909 -0.0525463,0.0158238 -0.0156684,0.0104437 -0.0268839,0.0256568 -0.0336465,0.0454727 -0.00675706,0.0198214 -0.0101384,0.0525463 -0.0101384,0.0984798l0 0.2323 -0.126441 0 0 -0.477958zm0.799826 0.232138c0,-0.0419415 0.0104493,-0.082656 0.0310369,-0.121982 0.0207376,-0.0391765 0.0500811,-0.0692918 0.0880305,-0.0898794 0.0379495,-0.0207376 0.0803518,-0.0311868 0.127213,-0.0311868 0.0722067,0 0.13151,0.0235081 0.177754,0.0705188 0.0462445,0.0470107 0.0692918,0.106314 0.0692918,0.178065 0,0.0722067 -0.0233527,0.132126 -0.0699081,0.179753 -0.0467053,0.047627 -0.105392,0.071285 -0.176216,0.071285 -0.0439403,0 -0.0855764,-0.00983299 -0.125369,-0.0296544 -0.0397928,-0.0198159 -0.070058,-0.048854 -0.0907955,-0.0871088 -0.0205876,-0.0382548 -0.0310369,-0.0848047 -0.0310369,-0.139811zm0.129667 0.00676261c0,0.0474715 0.0112155,0.0837331 0.0338019,0.108929 0.022431,0.025196 0.0502365,0.037794 0.0832723,0.037794 0.0330302,0 0.0606858,-0.012598 0.0829613,-0.037794 0.022431,-0.025196 0.0336465,-0.0617629 0.0336465,-0.109851 0,-0.0467053 -0.0112155,-0.0828114 -0.0336465,-0.108007 -0.0222755,-0.025196 -0.0499312,-0.037794 -0.0829613,-0.037794 -0.0330357,0 -0.0608413,0.012598 -0.0832723,0.037794 -0.0225864,0.025196 -0.0338019,0.0616075 -0.0338019,0.108929zm0.433407 -0.00676261c0,-0.0419415 0.0104493,-0.082656 0.0310369,-0.121982 0.0207376,-0.0391765 0.0500811,-0.0692918 0.0880305,-0.0898794 0.0379495,-0.0207376 0.0803518,-0.0311868 0.127213,-0.0311868 0.0722067,0 0.13151,0.0235081 0.177754,0.0705188 0.0462445,0.0470107 0.0692918,0.106314 0.0692918,0.178065 0,0.0722067 -0.0233527,0.132126 -0.0699081,0.179753 -0.0467053,0.047627 -0.105392,0.071285 -0.176216,0.071285 -0.0439403,0 -0.0855764,-0.00983299 -0.125369,-0.0296544 -0.0397928,-0.0198159 -0.070058,-0.048854 -0.0907955,-0.0871088 -0.0205876,-0.0382548 -0.0310369,-0.0848047 -0.0310369,-0.139811zm0.129667 0.00676261c0,0.0474715 0.0112155,0.0837331 0.0338019,0.108929 0.022431,0.025196 0.0502365,0.037794 0.0832723,0.037794 0.0330302,0 0.0606858,-0.012598 0.0829613,-0.037794 0.022431,-0.025196 0.0336465,-0.0617629 0.0336465,-0.109851 0,-0.0467053 -0.0112155,-0.0828114 -0.0336465,-0.108007 -0.0222755,-0.025196 -0.0499312,-0.037794 -0.0829613,-0.037794 -0.0330357,0 -0.0608413,0.012598 -0.0832723,0.037794 -0.0225864,0.025196 -0.0338019,0.0616075 -0.0338019,0.108929zm0.901076 0.239057l-0.11738 0 0 -0.0702134c-0.0195105,0.0273503 -0.0425578,0.047627 -0.0691363,0.0609967 -0.0265785,0.0133642 -0.0533125,0.0199714 -0.0803518,0.0199714 -0.0550003,0 -0.102017,-0.0221256 -0.141193,-0.0663713 -0.039021,-0.0442457 -0.058687,-0.106009 -0.058687,-0.185128 0,-0.0811235 0.0190497,-0.142731 0.0571546,-0.184828 0.0380994,-0.042097 0.0863426,-0.0632954 0.144569,-0.0632954 0.0533125,0 0.0995569,0.0222755 0.138578,0.0666767l0 -0.237674 0.126446 0 0 0.659865zm-0.337542 -0.24935c0,0.0510083 0.00706798,0.0878806 0.0212039,0.110772 0.0202823,0.0328747 0.048854,0.0494703 0.085421,0.0494703 0.0291936,0 0.0539288,-0.0124481 0.0743609,-0.0371832 0.0202767,-0.0247352 0.0305705,-0.0617574 0.0305705,-0.110922 0,-0.0548504 -0.0099829,-0.0944878 -0.0296489,-0.118607 -0.0198214,-0.0241189 -0.0451673,-0.036256 -0.0762043,-0.036256 -0.0299598,0 -0.0550003,0.0119817 -0.0752826,0.0357952 -0.0202767,0.0238135 -0.0304206,0.0594588 -0.0304206,0.10693zm0.462289 0.24935l0 -0.659865 0.126441 0 0 0.659865 -0.126441 0zm0.532814 -0.152098l0.126135 0.0210485c-0.0162902,0.0462445 -0.0417916,0.0814234 -0.0768206,0.105548 -0.0348735,0.0242743 -0.0786584,0.036256 -0.131205,0.036256 -0.0831168,0 -0.144569,-0.0270393 -0.184517,-0.0814289 -0.0314922,-0.0434795 -0.0473216,-0.0984798 -0.0473216,-0.164696 0,-0.0792747 0.0207431,-0.141343 0.0622238,-0.186205 0.0413308,-0.044862 0.0937215,-0.067293 0.157017,-0.067293 0.0711351,0 0.127213,0.0235081 0.168382,0.0705188 0.0410254,0.0470107 0.0606858,0.118912 0.0589979,0.215859l-0.316949 0c0.000921669,0.0374831 0.01106,0.0666767 0.0305705,0.0874142 0.0195161,0.0208986 0.0439403,0.0313423 0.0729784,0.0313423 0.0198214,0 0.0364115,-0.00537455 0.0499312,-0.0161292 0.0135197,-0.0109101 0.0238135,-0.0282719 0.0305761,-0.0522353zm0.00721789 -0.127829c-0.000921669,-0.0367169 -0.0102938,-0.0645224 -0.0282664,-0.0835776 -0.0179781,-0.0190497 -0.0399483,-0.0285717 -0.065755,-0.0285717 -0.0276556,0 -0.0503975,0.0101384 -0.0683701,0.0302652 -0.0179781,0.0199714 -0.0268839,0.0473161 -0.0265785,0.0818842l0.18897 0z"/>
    </g>
   </g>
  </g>
  <polygon class="fil6" points="-0,0 9.0926,0 9.0926,9.0926 -0,9.0926 "/>
 </g>
</svg>
