<?xml version="1.0" encoding="UTF-8"?>
<!DOCTYPE svg PUBLIC "-//W3C//DTD SVG 1.1//EN" "http://www.w3.org/Graphics/SVG/1.1/DTD/svg11.dtd">
<!-- Creator: CorelDRAW -->
<svg xmlns="http://www.w3.org/2000/svg" xml:space="preserve" width="24px" height="24px" style="shape-rendering:geometricPrecision; text-rendering:geometricPrecision; image-rendering:optimizeQuality; fill-rule:evenodd; clip-rule:evenodd"
viewBox="0 0 5.28948 5.28948"
 xmlns:xlink="http://www.w3.org/1999/xlink">
 <defs>
  <style type="text/css">
   <![CDATA[
    .fil6 {fill:none}
    .fil0 {fill:url(#id1)}
    .fil4 {fill:url(#id2)}
    .fil5 {fill:url(#id3)}
    .fil3 {fill:url(#id4)}
    .fil1 {fill:url(#id5);fill-rule:nonzero}
    .fil2 {fill:url(#id6);fill-rule:nonzero}
   ]]>
  </style>
   <clipPath id="id0">
    <path d="M-0 0l5.28948 0 0 5.28948 -5.28948 0 0 -5.28948z"/>
   </clipPath>
  <linearGradient id="id1" gradientUnits="userSpaceOnUse" x1="2.42439" y1="0.0926306" x2="2.42439" y2="5.36627">
   <stop offset="0" style="stop-color:#EDFAF8"/>
   <stop offset="1" style="stop-color:#BFE0F7"/>
  </linearGradient>
  <linearGradient id="id2" gradientUnits="userSpaceOnUse" x1="2.43911" y1="2.72829" x2="2.43911" y2="2.01157">
   <stop offset="0" style="stop-color:#282EB5"/>
   <stop offset="1" style="stop-color:#6D90D5"/>
  </linearGradient>
  <linearGradient id="id3" gradientUnits="userSpaceOnUse" x1="2.85101" y1="3.34591" x2="2.85101" y2="2.87033">
   <stop offset="0" style="stop-color:#DB6D17"/>
   <stop offset="1" style="stop-color:#F6A55E"/>
  </linearGradient>
  <linearGradient id="id4" gradientUnits="userSpaceOnUse" x1="4.45175" y1="2.67874" x2="4.08246" y2="2.67874">
   <stop offset="0" style="stop-color:#620382"/>
   <stop offset="1" style="stop-color:#DC83FC"/>
  </linearGradient>
  <linearGradient id="id5" gradientUnits="userSpaceOnUse" x1="2.63948" y1="0.742414" x2="2.63948" y2="4.55386">
   <stop offset="0" style="stop-color:white"/>
   <stop offset="1" style="stop-color:#EDFAF8"/>
  </linearGradient>
  <linearGradient id="id6" gradientUnits="userSpaceOnUse" x1="2.63518" y1="0.468951" x2="2.63518" y2="4.82866">
   <stop offset="0" style="stop-color:#C5E0E3"/>
   <stop offset="1" style="stop-color:#8FB4F0"/>
  </linearGradient>
 </defs>
 <g id="Ebene_x0020_1">
  <metadata id="CorelCorpID_0Corel-Layer"/>
  <g>
  </g>
  <g style="clip-path:url(#id0)">
   <g>
    <g id="_1005775688">
     <path id="_1005773864" class="fil0" d="M0.476011 2.39184c-1.38141,-0.997448 1.2566,-2.14294 1.91624,-1.34875 0,-0.674367 1.2603,-0.674367 1.2603,0 1.18417,-0.950459 2.02819,1.68594 1.26029,1.68594 0.841337,0.225096 -0.213823,2.63724 -1.26029,1.51734 -0.210051,0.67437 -1.47034,0.67437 -1.47034,0 -0.577909,0.695774 -2.31145,-0.525755 -1.70619,-1.01156 -0.420095,0 -0.630139,-0.842971 0,-0.842971z"/>
     <path id="_989079632" class="fil1" d="M0.292636 1.72112c-0.0303547,0.14667 0.0468692,0.316005 0.289413,0.495126 0.0593754,0.0359328 0.0990614,0.101129 0.0990614,0.175594 0,0.113273 -0.0918264,0.205099 -0.205099,0.205099 -0.105718,0 -0.160959,0.0345019 -0.179916,0.081074 -0.0101451,0.0249285 -0.0142601,0.0537457 -0.0131813,0.0839454 0.00127904,0.0357519 0.00935382,0.0729023 0.0231262,0.108502 0.0337267,0.0871882 0.0975304,0.159251 0.169971,0.159251l0 0.000532935c0.0597953,3.87589e-005 0.119048,0.0261494 0.159432,0.0763777 0.0707964,0.0880506 0.0568077,0.216824 -0.0312429,0.28762 -0.0562457,0.0451445 -0.0582321,0.113693 -0.0254517,0.188439 0.0405128,0.092369 0.122769,0.192312 0.230467,0.287255 0.11481,0.101212 0.254491,0.19238 0.401811,0.260415 0.303767,0.140288 0.634816,0.184131 0.804435,-0.00341725 0.0372215,-0.0518691 0.0980342,-0.0856637 0.166744,-0.0856637 0.113273,0 0.205099,0.0918264 0.205099,0.205099 0,0.0972752 0.0473989,0.169574 0.119681,0.216782 0.0669657,0.0437362 0.154396,0.0705477 0.250086,0.0803343 0.101503,0.0103809 0.210051,0.00101742 0.312807,-0.0280808 0.178627,-0.0505836 0.334603,-0.161108 0.387186,-0.329926l7.1058e-005 2.26094e-005c0.0102291,-0.0329515 0.02894,-0.0637649 0.0560099,-0.0889517 0.0827406,-0.0769882 0.212234,-0.0723242 0.289222,0.0104165 0.214085,0.229107 0.417737,0.266529 0.588696,0.195842 0.168265,-0.0695723 0.319364,-0.232951 0.431535,-0.428008 0.116461,-0.202522 0.187231,-0.432711 0.191004,-0.627355 0.00307165,-0.158518 -0.040348,-0.285188 -0.146599,-0.31846 -0.0912062,-0.02082 -0.159267,-0.102437 -0.159267,-0.199954 0,-0.113273 0.0918264,-0.205099 0.205099,-0.205099 0.062066,0 0.0894621,-0.100256 0.0894621,-0.237786 0,-0.142213 -0.0332455,-0.311954 -0.0940356,-0.481686 -0.0615815,-0.171954 -0.149845,-0.340055 -0.25881,-0.475814 -0.212596,-0.264872 -0.518123,-0.400154 -0.858895,-0.133838 -0.0364334,0.0331647 -0.0848627,0.0533807 -0.138011,0.0533807 -0.113273,0 -0.205099,-0.0918264 -0.205099,-0.205099 0,-0.13823 -0.101141,-0.229349 -0.230596,-0.271438 -0.0599471,-0.0194893 -0.126541,-0.0292372 -0.194454,-0.0292372 -0.0679121,0 -0.13451,0.00974787 -0.194454,0.0292372 -0.129455,0.042089 -0.230596,0.133208 -0.230596,0.271438l-0.000868846 0c-3.22991e-005,0.0585518 -0.0251029,0.116664 -0.0736387,0.157029 -0.0867231,0.0721207 -0.2155,0.0602863 -0.28762,-0.0264368 -0.217166,-0.261461 -0.75171,-0.237531 -1.21325,-0.065073 -0.191779,0.071662 -0.368155,0.169635 -0.502865,0.284755 -0.119862,0.102433 -0.203103,0.21485 -0.226472,0.327755z"/>
     <path id="_1005776768" class="fil2" d="M0.30815 2.3447c-0.253015,-0.225648 -0.327913,-0.458951 -0.282569,-0.678055 0.0366175,-0.176905 0.152432,-0.340555 0.316202,-0.480511 0.158824,-0.135731 0.363946,-0.250182 0.585118,-0.332826 0.49894,-0.186434 1.08406,-0.210151 1.41481,0.0470566 0.0515397,-0.196427 0.209508,-0.325749 0.401846,-0.388287 0.0884123,-0.0287462 0.18385,-0.0431225 0.278845,-0.0431225 0.0949949,0 0.190426,0.0143731 0.278845,0.0431225 0.198191,0.0644399 0.359896,0.199786 0.406261,0.4064 0.461793,-0.305724 0.868781,-0.116755 1.15453,0.239256 0.129368,0.161179 0.232793,0.35695 0.303673,0.554863 0.0711485,0.198652 0.110059,0.400754 0.110059,0.573555 0,0.209692 -0.0559162,0.379059 -0.178226,0.459852 0.135172,0.108438 0.192596,0.292656 0.188465,0.50572 -0.00464461,0.239637 -0.088871,0.517981 -0.227324,0.758748 -0.139887,0.243254 -0.336282,0.450292 -0.563994,0.544443 -0.250635,0.103632 -0.534311,0.0733513 -0.817293,-0.187651 -0.10419,0.210002 -0.307607,0.346876 -0.533804,0.410932 -0.135123,0.0382648 -0.278903,0.0504706 -0.414288,0.036624 -0.137323,-0.0140437 -0.266671,-0.0550571 -0.370797,-0.123063 -0.110363,-0.0720787 -0.192335,-0.173139 -0.226769,-0.303176 -0.269927,0.205112 -0.673449,0.15658 -1.03501,-0.0103971 -0.171912,-0.0793912 -0.334603,-0.185513 -0.46804,-0.303143 -0.135808,-0.119723 -0.24256,-0.252657 -0.299904,-0.383394 -0.0647855,-0.147717 -0.0688262,-0.291654 0.0133363,-0.41286 -0.133111,-0.0498924 -0.236436,-0.170769 -0.290314,-0.310046 -0.0245021,-0.0633353 -0.038914,-0.130798 -0.0412879,-0.197167 -0.00243858,-0.0682254 0.00769042,-0.135378 0.0324089,-0.196104 0.0433357,-0.106471 0.12855,-0.192635 0.265224,-0.230771zm-0.149044 -0.650814c-0.0413687,0.199893 0.0514945,0.420757 0.352231,0.639419 0.0198026,0.0119733 0.0330388,0.0337106 0.0330388,0.0585389 0,0.0377544 -0.0306099,0.0683643 -0.0683643,0.0683643 -0.171776,0 -0.267563,0.0708675 -0.306499,0.166534 -0.0174318,0.0428286 -0.0245538,0.0908154 -0.0227967,0.140026 0.00182813,0.0510617 0.0130682,0.103367 0.0322054,0.152833 0.0522793,0.135149 0.162322,0.246849 0.29709,0.246849l0 0.000174415c0.0199318,1.29196e-005 0.0396827,0.00871753 0.053145,0.0254614 0.0235977,0.0293502 0.0189337,0.0722757 -0.0104165,0.0958734 -0.113496,0.0910964 -0.122937,0.217047 -0.0649729,0.349205 0.0489299,0.111558 0.143434,0.227999 0.265182,0.335326 0.124125,0.109423 0.275311,0.208068 0.434927,0.281781 0.35841,0.165523 0.757663,0.205749 0.972513,-0.0473763 0.0123867,-0.017477 0.0327674,-0.0288851 0.0558161,-0.0288851 0.0377544,0 0.0683643,0.0306099 0.0683643,0.0683643 0,0.148844 0.0721433,0.259223 0.182173,0.331082 0.0855474,0.055871 0.19394,0.0897851 0.310443,0.1017 0.118441,0.0121122 0.244604,0.00132749 0.363546,-0.032354 0.219566,-0.062179 0.412718,-0.202606 0.480656,-0.420725l2.58393e-005 6.45982e-006c0.00341079,-0.0109849 0.00964451,-0.0212528 0.0186657,-0.0296474 0.027577,-0.0256616 0.0707447,-0.0241081 0.0964064,0.00346892 0.260793,0.279097 0.518543,0.320688 0.740389,0.228959 0.197984,-0.0818621 0.37173,-0.267068 0.497762,-0.486228 0.127459,-0.221646 0.204957,-0.475914 0.209166,-0.693052 0.00431839,-0.222909 -0.0703055,-0.403623 -0.25183,-0.453809 -0.0306066,-0.00678927 -0.0535002,-0.0340917 -0.0535002,-0.0667396 0,-0.0377544 0.0306099,-0.0683643 0.0683643,-0.0683643 0.156932,0 0.226197,-0.157907 0.226197,-0.374521 0,-0.1575 -0.0360781,-0.343423 -0.102049,-0.527619 -0.0662325,-0.184935 -0.162077,-0.366869 -0.281244,-0.515342 -0.25952,-0.323337 -0.635207,-0.485856 -1.05722,-0.149496 -0.0121412,0.0110366 -0.0282682,0.0177645 -0.0459681,0.0177645 -0.0377544,0 -0.0683643,-0.0306099 -0.0683643,-0.0683643 0,-0.207926 -0.142607,-0.34188 -0.325136,-0.401226 -0.074191,-0.024121 -0.155204,-0.0361847 -0.236649,-0.0361847 -0.0814454,0 -0.162461,0.0120637 -0.236649,0.0361847 -0.182529,0.0593464 -0.325136,0.1933 -0.325136,0.401226l-0.000287462 0c-9.68973e-006,0.0195184 -0.0083687,0.0388881 -0.0245473,0.0523439 -0.0289077,0.0240402 -0.0718332,0.0200933 -0.0958734,-0.00881443 -0.257996,-0.310621 -0.856747,-0.29575 -1.36547,-0.105663 -0.206482,0.0771561 -0.397231,0.183365 -0.543994,0.308789 -0.141816,0.121196 -0.241345,0.259229 -0.271338,0.404136z"/>
     <path id="_1005777128" class="fil3" d="M4.17479 1.59992l0.184644 0c0.0507774,0 0.0923238,0.0415463 0.0923238,0.0923205l0 1.97298c0,0.0507742 -0.0415496,0.0923238 -0.0923238,0.0923238l-0.184644 0c-0.0507742,0 -0.0923238,-0.0415463 -0.0923238,-0.0923238l0 -1.97298c0,-0.0507774 0.0415463,-0.0923205 0.0923238,-0.0923205z"/>
     <path id="_1005775712" class="fil4" d="M1.10917 2.01157l2.65988 0c0.0985478,0 0.179179,0.0806315 0.179179,0.179183l0 0.358362c0,0.098551 -0.0806315,0.179183 -0.179179,0.179183l-2.65988 0c-0.098551,0 -0.179183,-0.0806315 -0.179183,-0.179183l0 -0.358362c0,-0.098551 0.0806315,-0.179183 0.179183,-0.179183z"/>
     <path id="_175511256" class="fil5" d="M3.82934 2.87033l-1.95665 0c-0.0653928,0 -0.118896,0.0535002 -0.118896,0.118893l0 0.237792c0,0.0653928 0.0535035,0.118896 0.118896,0.118896l1.95665 0c0.0653928,0 0.118893,-0.0535035 0.118893,-0.118896l0 -0.237792c0,-0.0653928 -0.0535002,-0.118893 -0.118893,-0.118893z"/>
    </g>
   </g>
  </g>
  <polygon class="fil6" points="-0,0 5.28948,0 5.28948,5.28948 -0,5.28948 "/>
 </g>
</svg>
