<?xml version="1.0" encoding="UTF-8"?>
<!DOCTYPE svg PUBLIC "-//W3C//DTD SVG 1.1//EN" "http://www.w3.org/Graphics/SVG/1.1/DTD/svg11.dtd">
<!-- Creator: CorelDRAW -->
<svg xmlns="http://www.w3.org/2000/svg" xml:space="preserve" width="24px" height="24px" style="shape-rendering:geometricPrecision; text-rendering:geometricPrecision; image-rendering:optimizeQuality; fill-rule:evenodd; clip-rule:evenodd"
viewBox="0 0 1.21271 1.21271"
 xmlns:xlink="http://www.w3.org/1999/xlink">
 <defs>
  <style type="text/css">
   <![CDATA[
    .fil2 {fill:none}
    .fil1 {fill:black}
    .fil0 {fill:#1F1A17;fill-rule:nonzero}
   ]]>
  </style>
   <clipPath id="id0">
    <path d="M-0 0l1.21271 0 0 1.21271 -1.21271 0 0 -1.21271z"/>
   </clipPath>
 </defs>
 <g id="Ebene_x0020_1">
  <metadata id="CorelCorpID_0Corel-Layer"/>
  <g>
  </g>
  <g style="clip-path:url(#id0)">
   <g>
    <path class="fil0" d="M0.48138 0.114561c-0.0123798,-0.00405247 -0.0256135,-0.00625051 -0.0393626,-0.00625051 -0.0132741,0 -0.0260985,0.00206161 -0.038165,0.00587659 -0.0125768,0.00397668 -0.0242997,0.0098179 -0.0348149,0.017175 -0.0075188,0.00526013 -0.0144969,0.0113793 -0.0207879,0.0182058 -0.00619998,0.00672044 -0.0117128,0.0141736 -0.016412,0.0222128l-0.00299135 0.00511359 -0.00597765 0.000368866c-0.0252749,0.0015361 -0.0493523,0.0076906 -0.0713629,0.0176146 -0.0226979,0.0102373 -0.0432331,0.0245372 -0.0606658,0.0419699 -0.0189132,0.0189132 -0.0341327,0.0414494 -0.0444711,0.066406l0 4.54766e-005c-0.00996949,0.0240622 -0.0154772,0.0504942 -0.0154772,0.078235 0,0.00532582 0.000197065,0.0105051 0.000576037,0.0155227 0.000389078,0.0051237 0.00099038,0.0102929 0.00177864,0.0154772l-2.52648e-005 5.05296e-006 0.000449713 0.00278923 0.00124808 0.00772597 -0.0069074 0.00376445c-0.0166899,0.00910038 -0.0322278,0.0201916 -0.046275,0.0329402 -0.0141079,0.0128143 -0.0266493,0.0272304 -0.0372858,0.0429198 -0.013168,0.0194236 -0.023567,0.0408885 -0.0306159,0.0638088 -0.00677097,0.022036 -0.0104243,0.0454766 -0.0104243,0.0697915 0,0.0294032 0.00532582,0.0575431 0.0150528,0.0834799 0.0100857,0.026907 0.0249919,0.0516059 0.0436525,0.0730355l0.00441123 0.00506307c0.0144464,0.0156692 0.0309797,0.0293931 0.0491249,0.0407269 0.0197369,0.0123191 0.0414444,0.021854 0.0645061,0.0280136l0.00808979 0.00215761 0.00013643 0.00841823c0.000576037,0.0343298 0.00782703,0.0670679 0.02051,0.0969612l0 4.04237e-005c0.0131124,0.030909 0.0321217,0.0588114 0.055628,0.0823127 0.0239864,0.0239864 0.0526215,0.0433089 0.0843945,0.0564769l-5.05296e-006 1.51589e-005c0.0305654,0.0126577 0.0641322,0.0196459 0.0993715,0.0196459 0.019752,0 0.0389684,-0.00221825 0.0573814,-0.0064021 0.0190547,-0.00433544 0.0373565,-0.0107679 0.0546174,-0.0190294 0.0124606,-0.00596249 0.024421,-0.0129305 0.0357699,-0.0207828 0.0113591,-0.0078624 0.0220865,-0.0166343 0.032056,-0.0261844l0.00668507 -0.00640715 0.00750364 0.00540667c0.00686697,0.00494179 0.0140877,0.00952483 0.0215913,0.0136885 0.00741269,0.00411311 0.0151033,0.00781187 0.0230112,0.0110508 0.012885,0.00527529 0.026432,0.00938335 0.0404692,0.0121524 0.0135773,0.00268312 0.0275993,0.0040929 0.0419143,0.0040929 0.0295244,0 0.0576492,-0.00586143 0.0832374,-0.0164575 0.0265432,-0.0109952 0.0505043,-0.0271799 0.0706101,-0.0472856 0.0201057,-0.0201057 0.0362904,-0.0440719 0.0472856,-0.0706151l0 -4.54766e-005c0.0106062,-0.0255932 0.0164575,-0.0536927 0.0164575,-0.0831919 0,-0.00789778 -0.00044466,-0.0156995 -0.00129356,-0.0233649 -0.000894374,-0.00802915 -0.00220309,-0.0159067 -0.00389583,-0.0235822l-1.01059e-005 0 -0.000414343 -0.00184433 -0.00259217 -0.0115561 0.0116875 -0.00184938c0.0272759,-0.00431523 0.0532077,-0.0129255 0.0770627,-0.0251031 0.0244361,-0.0124758 0.0466135,-0.0286705 0.0657491,-0.0478111l0 -4.54766e-005c0.0239864,-0.0239864 0.043314,-0.0526215 0.0564769,-0.0843895l1.51589e-005 5.05296e-006c0.0126577,-0.0305654 0.0196459,-0.0641372 0.0196459,-0.0993765 0,-0.0330059 -0.00613935,-0.0645364 -0.0173266,-0.0934899 -0.0116319,-0.0301005 -0.0287463,-0.0575431 -0.0501152,-0.0810899 -0.0184332,-0.0203129 -0.0400447,-0.0376951 -0.0640159,-0.051333 -0.0235064,-0.0133752 -0.0492967,-0.0231981 -0.0766029,-0.028721l-0.0076047 -0.00154115 -0.00118745 -0.00764007c-0.00444155,-0.0286452 -0.0135621,-0.0557544 -0.0265381,-0.0804936 -0.0132842,-0.0253254 -0.0306715,-0.0482254 -0.0512673,-0.0677854 -0.0237641,-0.0225817 -0.0517979,-0.040737 -0.082722,-0.0530965 -0.0297165,-0.0118795 -0.0621868,-0.018418 -0.0962235,-0.018418 -0.0213538,0 -0.0420305,0.00255174 -0.0617219,0.00735711 -0.0202977,0.0049519 -0.0397567,0.0123494 -0.0580282,0.021854 -0.011354,0.00590186 -0.0221219,0.0125465 -0.0321975,0.0198278 -0.0102019,0.00737227 -0.0198986,0.0155176 -0.0289888,0.0243452l-0.00846371 0.00821611 -0.0076805 -0.00891342c-0.00316315,-0.0036735 -0.00658906,-0.00721057 -0.0102373,-0.0105809 -0.00371898,-0.00343096 -0.00751375,-0.00656379 -0.0113237,-0.00934292 -0.0107375,-0.00783714 -0.0227585,-0.0140624 -0.0356789,-0.0182917zm-0.0139765 0.0436525c0.00824138,0.0026528 0.0159118,0.00659916 0.0227484,0.0115864 0.00697308,0.00508833 0.0131175,0.0112479 0.0181553,0.0182058l2.02118e-005 -1.51589e-005c0.0049519,0.00684171 0.00888816,0.0145727 0.0115511,0.0229152l0.0140624 0.043981 0.0264775 -0.0377052c0.00983811,-0.0140119 0.0213791,-0.0268363 0.0343197,-0.038165 0.0129103,-0.0113035 0.0271394,-0.0210708 0.0423792,-0.0289989 0.0148759,-0.00773608 0.0308938,-0.0138047 0.0477656,-0.0179077 0.0163716,-0.00398173 0.0334051,-0.00609892 0.0508176,-0.00609892 0.027953,0 0.0547337,0.00539656 0.0793163,0.0151942 0.0255073,0.0101615 0.048569,0.0250627 0.0680583,0.0435868 0.0196206,0.0186353 0.0357143,0.0409441 0.0471643,0.0657946 0.011071,0.0240369 0.0178218,0.0505043 0.0192164,0.0783663l0.00100049 0.0198025 0.0197217 0.00189486c0.026811,0.00257196 0.0521971,0.010116 0.0751981,0.0216974 0.0237034,0.011925 0.0449107,0.02815 0.062586,0.0476241 0.0175136,0.0192922 0.0315608,0.0418638 0.041121,0.066689 0.00923176,0.023951 0.0142999,0.0499434 0.0142999,0.0770374 0,0.028913 -0.00577553,0.0565426 -0.0162301,0.0817872 -0.0108437,0.0261794 -0.0267352,0.0497514 -0.0464468,0.0694681l-2.52648e-005 2.02118e-005 -2.02118e-005 2.52648e-005c-0.0197166,0.0197065 -0.0432836,0.0356032 -0.069463,0.0464468 -0.0219804,0.00910543 -0.0457748,0.0146586 -0.0706454,0.0159421l0 0.000469925 -0.0112277 -0.000101059 -0.00333495 -3.03178e-005 -0.0363308 -0.000389078 0.0153408 0.0329503c0.00266796,0.00573006 0.00503275,0.0115814 0.00705898,0.0174933l0 4.54766e-005c0.00203129,0.00593723 0.00371393,0.0118492 0.00499232,0.0176651l-4.04237e-005 1.01059e-005c0.00129861,0.00590186 0.00229404,0.0119755 0.00294082,0.0181654 0.000656885,0.00628588 0.000995433,0.0126172 0.000995433,0.0189486 0,0.023183 -0.00463862,0.0453554 -0.0130265,0.0656127 -0.00872646,0.0210759 -0.0214751,0.0399992 -0.0372555,0.0557796 -0.0157753,0.0157753 -0.0346987,0.028524 -0.0557746,0.0372504 -0.0202523,0.00838791 -0.0424246,0.0130265 -0.0656076,0.0130265 -0.0113692,0 -0.0225109,-0.00109649 -0.0332838,-0.00318336 -0.0109851,-0.0021273 -0.0215963,-0.00532582 -0.0316972,-0.00946419 -0.0103889,-0.00425459 -0.0202573,-0.0094844 -0.0294689,-0.0155682 -0.0093126,-0.0061545 -0.0180239,-0.0132185 -0.0259823,-0.0210557l-0.0180138 -0.0177308 -0.0158865 0.0197015c-0.0100099,0.0124101 -0.0214245,0.0237287 -0.0339812,0.033683l2.02118e-005 2.02118e-005c-0.0123798,0.00981285 -0.0259469,0.0183119 -0.0404489,0.0252496 -0.0141028,0.00675075 -0.029105,0.0119957 -0.0447541,0.0155075 -0.0153256,0.00344107 -0.0312323,0.00526013 -0.0475029,0.00526013 -0.0590741,0 -0.112585,-0.0239611 -0.151301,-0.0626769l2.52648e-005 -2.52648e-005c-0.0197166,-0.0197217 -0.0356183,-0.0432938 -0.046467,-0.0694883 -0.0104546,-0.0252446 -0.0162301,-0.0528742 -0.0162301,-0.0817872l8.08473e-005 -0.00606355c2.02118e-005,-0.00199087 6.06355e-005,-0.00342591 0.000101059,-0.00428996 0.000111165,-0.00231426 0.000217277,-0.00410806 0.000303178,-0.00535614l5.05296e-006 0c7.57944e-005,-0.00115713 0.000237489,-0.00296609 0.000429502,-0.00501254l0 -4.54766e-005 0.00211214 -0.021849 -0.0218389 -0.00299135c-0.0233144,-0.00318842 -0.0452897,-0.0105506 -0.0651124,-0.0212982 -0.0188627,-0.0102272 -0.0358609,-0.0235417 -0.0503022,-0.0392615l-0.000217277 0 -0.00334001 -0.00383014c-0.0149214,-0.0171245 -0.0268817,-0.0370382 -0.0350372,-0.0589023 -0.0078624,-0.0210658 -0.0121625,-0.0438344 -0.0121625,-0.067548 0,-0.0196257 0.00295093,-0.03864 0.00841318,-0.056578 0.00563405,-0.0184989 0.0139815,-0.0357851 0.0245523,-0.0513785 0.0108234,-0.0159623 0.023946,-0.0302066 0.0388674,-0.0422175 0.01479,-0.0119048 0.0314345,-0.0216924 0.049428,-0.0288625l0.0197823 -0.00788767 -0.00633136 -0.0201866c-0.00115713,-0.00368866 -0.00220814,-0.00755417 -0.00312778,-0.011546 -0.000919639,-0.00400194 -0.00169274,-0.00797862 -0.00228394,-0.0119048 -0.000591196,-0.00385035 -0.00104596,-0.0078523 -0.00134914,-0.0119654 -0.000308231,-0.00413332 -0.000469925,-0.00822116 -0.000469925,-0.0122181 0,-0.0214195 0.00428996,-0.0419193 0.0120463,-0.0606507 0.00806958,-0.0194943 0.0198632,-0.0369978 0.034441,-0.0515756 0.0353353,-0.0353353 0.0776084,-0.0471896 0.126405,-0.0463306l0 0.000176854 0.00982801 0.000338548 0.00569974 -0.0156339c0.00288524,-0.00792304 0.00696803,-0.0152801 0.0120058,-0.0218338l2.02118e-005 1.51589e-005c0.00509844,-0.00662443 0.011167,-0.0124404 0.0179633,-0.0171902 0.00672044,-0.00470936 0.0141938,-0.00841318 0.0221724,-0.0108942 0.00778156,-0.00241531 0.0160634,-0.00372403 0.0246231,-0.00372403 0.00881741,0 0.0173569,0.00139967 0.0253861,0.00398173z"/>
    <path class="fil1" d="M0.278913 0.609291c0.00227383,0 0.73612,0 0.73612,0 0.0318084,0 0.0590741,-0.0272658 0.0590741,-0.0590691 0,-0.0318084 -0.0272658,-0.0590691 -0.0590741,-0.0590691l-0.729304 0c-0.0318084,-0.00227888 -0.061348,0.0227181 -0.0636117,0.0545265 -1.01059e-005,0.0340822 0.0249869,0.0613429 0.0567953,0.0636117z"/>
    <path class="fil1" d="M0.408229 0.440926l0.27237 0c0.0236832,-0.00169779 0.0422983,-0.0219955 0.0406005,-0.0473664 -0.00169274,-0.0219955 -0.018605,-0.0406056 -0.0406005,-0.0406056l-0.270677 0c-0.0236832,0 -0.043981,0.0203028 -0.0422933,0.0456788 0.00169274,0.0219905 0.018605,0.0406056 0.0406005,0.0422933z"/>
    <path class="fil1" d="M0.387143 0.728894l0.429148 0c0.0187162,0.00133903 0.0360983,-0.0133651 0.0374323,-0.0320812 0.00133903,-0.0187162 -0.0133701,-0.0360983 -0.0320863,-0.0374323 -0.00133903,0 -0.43316,0 -0.43316,0 -0.0200552,0 -0.0347593,0.0147041 -0.0347593,0.0347593 0,0.0200552 0.0133701,0.0347543 0.0334253,0.0347543z"/>
    <path class="fil1" d="M0.603611 0.77906l-0.249823 0c-0.0217227,0.00155631 -0.0387916,0.0201765 -0.0372403,0.0434453 0.00155631,0.0201765 0.0170689,0.0372403 0.0372403,0.0372403l0.248267 0c0.0217227,0 0.0403428,-0.0186202 0.0387916,-0.0418941 -0.00155126,-0.0201714 -0.0170638,-0.0372403 -0.0372353,-0.0387916z"/>
   </g>
  </g>
  <polygon class="fil2" points="-0,0 1.21271,0 1.21271,1.21271 -0,1.21271 "/>
 </g>
</svg>
