<?xml version="1.0" encoding="UTF-8"?>
<!DOCTYPE svg PUBLIC "-//W3C//DTD SVG 1.1//EN" "http://www.w3.org/Graphics/SVG/1.1/DTD/svg11.dtd">
<!-- Creator: CorelDRAW -->
<svg xmlns="http://www.w3.org/2000/svg" xml:space="preserve" width="84666.7px" height="84666.7px" style="shape-rendering:geometricPrecision; text-rendering:geometricPrecision; image-rendering:optimizeQuality; fill-rule:evenodd; clip-rule:evenodd"
viewBox="0 0 6594.02 6594.02"
 xmlns:xlink="http://www.w3.org/1999/xlink">
 <defs>
  <style type="text/css">
   <![CDATA[
    .fil2 {fill:none}
    .fil0 {fill:black}
    .fil1 {fill:black;fill-rule:nonzero}
   ]]>
  </style>
   <clipPath id="id0">
    <path d="M-0 6594.02l6594.02 0 0 -6594.02 -6594.02 0 0 6594.02z"/>
   </clipPath>
 </defs>
 <g id="Ebene_x0020_1">
  <metadata id="CorelCorpID_0Corel-Layer"/>
  <g>
  </g>
  <g style="clip-path:url(#id0)">
   <g>
    <path class="fil0" d="M1508.99 3690.92c16.2103,0 3765.19,0 3765.19,0 226.56,0 420.754,-194.194 420.754,-420.754 0,-226.56 -194.194,-420.754 -420.754,-420.754l-3716.61 0c-226.56,-16.2103 -436.964,161.828 -453.119,388.388 -0.0549502,242.77 177.984,436.964 404.543,453.119z"/>
    <path class="fil0" d="M2038.54 4728.66c12.3638,0 2156.82,0 2156.82,0 172.928,0 321.184,-148.256 321.184,-321.184 0,-172.956 -148.256,-321.184 -321.184,-321.184l-2119.76 0c-172.928,-12.3913 -333.548,123.528 -345.884,296.484 -0.0549502,185.32 135.864,333.548 308.82,345.884z"/>
    <path class="fil1" d="M2423.85 591.704c161.251,0 311.101,52.7247 433.392,141.936 45.746,33.3822 87.5357,71.9848 124.49,114.901 100.064,-97.2344 214.196,-179.962 338.96,-244.886 198.782,-103.389 424.463,-161.911 663.496,-161.911 383.772,0 732.926,150.783 991.439,396.383 225.076,213.839 381.107,500.047 430.974,821.588 306.485,61.9838 577.417,220.955 779.249,443.366 232.247,255.903 373.826,595.303 373.826,967.288 0,397.537 -161.251,757.571 -421.853,1018.2 -210.02,210.02 -484.633,355.5 -791.393,404.049l2.22548 9.80861c19.1227,86.6015 29.206,174.522 29.206,262.36 0,335.498 -136.057,639.318 -355.995,859.256 -219.911,219.938 -523.785,356.022 -859.256,356.022 -161.609,0 -317.09,-32.3382 -460.098,-90.9426 -88.7721,-36.3496 -172.269,-82.8924 -249.007,-138.145 -109.928,105.34 -236.671,193.535 -375.887,260.189 -188.919,90.448 -399.433,141.112 -620.47,141.112 -397.565,0 -757.571,-161.224 -1018.2,-421.853 -255.244,-255.244 -415.121,-605.798 -421.605,-993.637 -258.898,-69.2098 -486.419,-214.361 -656.93,-410.038l0.384651 -0.329701c-203.316,-233.483 -326.459,-538.017 -326.459,-870.439 0,-274.421 84.2661,-530.187 228.455,-742.872 118.583,-174.934 277.993,-320.057 464.522,-421.77l-2.44528 -15.3311c-8.70961,-56.9559 -13.243,-114.928 -13.243,-173.478 0,-316.458 128.364,-603.078 335.856,-810.57 191.941,-191.914 451.553,-316.101 739.85,-333.685 53.9886,-92.3713 127.539,-172.049 214.993,-233.236 120.066,-84.0189 265.492,-133.337 421.523,-133.337zm221.065 433.502c-61.2695,-44.702 -137.623,-71.133 -221.065,-71.133 -80.6669,0 -154.712,24.7001 -214.855,66.792 -62.4234,43.6579 -110.999,106.054 -137.623,179.028l-44.9767 123.363 -130.534 -4.45097 -21.6779 -0.769303 0 0c-8.10515,-0.164851 7.33585,0.439602 -16.1279,0.439602 -216.476,0 -412.539,87.8104 -554.393,229.664 -141.854,141.854 -229.637,337.889 -229.637,554.393 0,41.1028 3.04974,81.1614 8.95688,119.709 6.09947,40.1961 15.1113,78.9085 26.6783,115.808l49.9772 159.273 -156.141 62.2586c-180.539,71.9298 -334.345,197.051 -442.047,355.912 -103.993,153.366 -164.741,339.345 -164.741,540.49 0,242.825 89.1018,464.192 236.203,632.999l0.686878 0c149.794,171.884 358.852,290.219 594.644,322.475l172.351 23.5736 -16.6499 172.461c-1.53861,15.8806 -2.77499,33.4372 -3.70914,52.5324 -0.494552,10.2207 -0.741828,27.64 -0.741828,52.2302 0,297.583 120.643,567.004 315.634,762.022 195.018,194.991 464.439,315.634 762.022,315.634 167.543,0 325.113,-37.476 464.741,-104.295 145.838,-69.8142 273.817,-171.912 374.733,-297.061l125.396 -155.454 142.129 139.903c78.6887,77.3974 172.159,139.738 275.63,182.105 98.4433,40.3334 207.41,62.5883 322.832,62.5883 235.517,0 448.778,-95.476 603.078,-249.804 154.3,-154.328 249.804,-367.589 249.804,-603.106 0,-65.5556 -6.67645,-127.265 -19.315,-184.495 -13.0507,-59.1539 -33.2998,-117.786 -59.8682,-174.824l-121.028 -259.997 286.648 3.07721 17.7214 0.192326 0 -0.714353c297.555,0 567.004,-120.643 761.994,-315.634 194.991,-195.018 315.634,-464.467 315.634,-762.022 0,-278.955 -105.642,-532.88 -278.955,-723.859 -175.648,-193.507 -420.039,-323.052 -693.884,-349.346l-155.619 -14.9465 -7.88535 -156.306c-14.342,-285.027 -140.013,-541.205 -334.427,-725.892 -192.958,-183.369 -454.328,-295.879 -742.322,-295.879 -179.275,0 -348.164,43.6579 -496.475,120.808 -154.575,80.4196 -287.225,197.024 -386.492,338.383l-208.893 297.5 -110.972 -347.038c-24.3979,-76.3533 -72.864,-142.184 -136.441,-188.589z"/>
    <path class="fil0" d="M1977.58 2453.8c12.3638,0 2376.82,0 2376.82,0 172.956,0 321.211,-148.256 321.211,-321.184 0,-172.956 -148.256,-321.184 -321.211,-321.184l-2339.75 0c-172.928,-12.3913 -333.548,123.528 -345.884,296.484 -0.0549502,185.32 135.864,333.548 308.82,345.884z"/>
   </g>
  </g>
  <polygon class="fil2" points="-0,6594.02 6594.02,6594.02 6594.02,0 -0,0 "/>
 </g>
</svg>
