<?xml version="1.0" encoding="UTF-8"?>
<!DOCTYPE svg PUBLIC "-//W3C//DTD SVG 1.1//EN" "http://www.w3.org/Graphics/SVG/1.1/DTD/svg11.dtd">
<!-- Creator: CorelDRAW 2021 (64-Bit) -->
<svg xmlns="http://www.w3.org/2000/svg" xml:space="preserve" width="24px" height="24px" version="1.1" style="shape-rendering:geometricPrecision; text-rendering:geometricPrecision; image-rendering:optimizeQuality; fill-rule:evenodd; clip-rule:evenodd"
viewBox="0 0 0.94 0.94"
 xmlns:xlink="http://www.w3.org/1999/xlink"
 xmlns:xodm="http://www.corel.com/coreldraw/odm/2003">
 <defs>
  <style type="text/css">
   <![CDATA[
    .str0 {stroke:#212529;stroke-width:0.04;stroke-linecap:round;stroke-linejoin:round;stroke-miterlimit:22.9256}
    .fil0 {fill:none}
   ]]>
  </style>
 </defs>
 <g id="Ebene_x0020_1">
  <metadata id="CorelCorpID_0Corel-Layer"/>
  <g id="_1347333867760">
   <rect class="fil0" width="0.94" height="0.94"/>
   <g>
    <path class="fil0 str0" d="M0.35 0.11c0.03,0 0.06,0.02 0.07,0.05 0.04,-0.04 0.09,-0.07 0.15,-0.07 0.1,0 0.18,0.07 0.18,0.17 0.09,0.01 0.17,0.09 0.17,0.18 0,0.1 -0.09,0.18 -0.19,0.18 0,0 0,0 0,0 0.01,0.02 0.02,0.04 0.02,0.06 0,0.09 -0.07,0.15 -0.15,0.15 -0.04,0 -0.08,-0.01 -0.11,-0.04 -0.03,0.04 -0.08,0.07 -0.14,0.07 -0.1,0 -0.18,-0.08 -0.18,-0.18 0,-0.01 0,-0.02 0,-0.02 -0.08,-0.01 -0.14,-0.08 -0.14,-0.16 0,-0.07 0.04,-0.13 0.1,-0.16 0,-0.01 0,-0.02 0,-0.04 0,-0.08 0.06,-0.14 0.14,-0.14 0,0 0,0 0,0 0.01,-0.03 0.04,-0.05 0.08,-0.05z"/>
    <line class="fil0 str0" x1="0.27" y1="0.33" x2="0.6" y2= "0.33" />
    <line class="fil0 str0" x1="0.18" y1="0.49" x2="0.76" y2= "0.49" />
    <line class="fil0 str0" x1="0.32" y1="0.65" x2="0.6" y2= "0.65" />
   </g>
  </g>
 </g>
</svg>
